<?xml version="1.0" standalone="no"?>
<!DOCTYPE svg PUBLIC "-//W3C//DTD SVG 20010904//EN"
 "http://www.w3.org/TR/2001/REC-SVG-20010904/DTD/svg10.dtd">
<svg version="1.0" xmlns="http://www.w3.org/2000/svg"
 width="500.000000pt" height="500.000000pt" viewBox="0 0 500.000000 500.000000"
 preserveAspectRatio="xMidYMid meet">
<metadata>
Created by potrace 1.15, written by Peter Selinger 2001-2017
</metadata>
<g transform="translate(0.000000,500.000000) scale(0.100000,-0.100000)"
fill="#000000" stroke="none">
<path d="M2679 4871 c-48 -15 -74 -34 -146 -109 -40 -40 -76 -71 -81 -68 -5 3
-24 -10 -42 -29 -19 -19 -30 -35 -25 -35 5 0 -6 -16 -25 -35 -18 -19 -38 -31
-43 -28 -6 3 -7 2 -4 -4 8 -13 -48 -67 -61 -59 -10 6 -35 -18 -27 -26 7 -7
-255 -268 -265 -265 -4 1 -9 -2 -9 -8 -2 -14 -63 -75 -74 -75 -5 0 -3 8 4 18
7 9 -4 1 -24 -17 -36 -34 -52 -56 -22 -31 8 7 15 8 15 3 0 -5 -71 -76 -157
-159 -87 -82 -179 -171 -206 -199 -26 -27 -51 -49 -56 -48 -5 1 -19 -9 -31
-22 -13 -14 -20 -25 -15 -25 5 0 -6 -16 -25 -35 -37 -39 -64 -48 -34 -12 10
12 4 9 -14 -7 -33 -31 -45 -49 -15 -25 14 12 16 12 11 -1 -4 -13 -54 -15 -366
-15 -198 0 -359 -2 -356 -4 6 -6 -47 -31 -56 -26 -8 5 -38 -25 -32 -32 4 -5
-44 -74 -49 -69 -2 2 -2 -285 1 -638 l5 -642 27 -41 c15 -22 42 -50 62 -62 34
-21 42 -22 388 -21 l353 0 45 -47 45 -48 -45 40 -45 40 39 -42 c22 -23 43 -40
48 -37 10 6 109 -86 103 -96 -5 -8 69 -83 76 -76 3 3 59 -49 124 -114 66 -66
123 -120 127 -120 5 0 8 348 8 774 0 429 4 777 9 780 4 3 11 19 14 36 5 20 15
34 33 40 14 6 28 19 31 29 3 12 23 24 55 35 43 14 113 16 513 16 413 0 464 2
469 16 3 9 6 329 6 712 0 613 -2 703 -16 754 -9 32 -21 58 -25 58 -5 0 -9 4
-9 9 0 14 -72 82 -98 92 -28 11 -77 10 -113 0z"/>
<path d="M4247 4320 c-16 -5 -44 -20 -63 -35 -19 -14 -38 -24 -42 -21 -9 6
-80 -63 -72 -69 9 -6 -130 -145 -142 -142 -7 1 -12 -3 -13 -10 0 -6 -38 -48
-85 -94 -47 -45 -164 -159 -260 -253 -96 -94 -178 -171 -181 -171 -10 0 -24
-15 -24 -26 0 -5 -59 -64 -131 -131 -73 -68 -185 -178 -249 -245 l-117 -122
-366 -4 c-202 -3 -373 -6 -379 -7 -7 -2 -13 -8 -13 -13 0 -6 -3 -8 -6 -4 -4 3
-22 -12 -40 -34 -19 -23 -35 -42 -36 -42 -7 -5 -12 -1297 -5 -1297 4 0 7 -7 7
-15 0 -25 73 -90 116 -103 29 -8 142 -12 381 -12 312 0 342 -1 354 -18 13 -16
13 -16 -6 -2 -19 14 -19 14 -6 -2 7 -10 16 -16 20 -14 4 3 107 -94 230 -215
123 -120 220 -219 215 -219 -4 0 7 -16 26 -35 18 -18 36 -33 39 -32 7 2 228
-210 461 -443 146 -146 291 -284 332 -316 40 -31 132 -43 183 -24 22 8 101 80
88 80 -2 0 4 15 14 33 17 30 18 137 23 1949 3 1054 3 1914 1 1912 -3 -2 -13
22 -23 54 -37 120 -124 174 -231 142z"/>
<path d="M2110 1221 c0 -5 36 -44 80 -86 43 -43 78 -82 77 -88 -1 -6 4 -11 11
-12 16 0 103 -85 97 -95 -6 -10 80 -92 88 -84 4 4 38 -22 76 -57 87 -81 89
-83 130 -97 77 -27 147 -11 199 44 64 69 67 82 70 282 3 131 0 182 -8 182 -6
0 -8 5 -5 10 4 7 -133 10 -404 10 -233 0 -411 -4 -411 -9z"/>
</g>
</svg>
