<?xml version="1.0" standalone="no"?>
<!DOCTYPE svg PUBLIC "-//W3C//DTD SVG 20010904//EN"
 "http://www.w3.org/TR/2001/REC-SVG-20010904/DTD/svg10.dtd">
<svg version="1.0" xmlns="http://www.w3.org/2000/svg"
 width="540.000000pt" height="540.000000pt" viewBox="0 0 540.000000 540.000000"
 preserveAspectRatio="xMidYMid meet">
<metadata>
Created by potrace 1.15, written by Peter Selinger 2001-2017
</metadata>
<g transform="translate(0.000000,540.000000) scale(0.100000,-0.100000)"
fill="#000000" stroke="none">
<path d="M655 4971 c-41 -25 -82 -70 -94 -104 -16 -41 -13 -122 4 -165 11 -26
609 -630 2088 -2110 1625 -1625 2083 -2078 2121 -2097 59 -30 116 -32 171 -6
103 48 152 167 110 269 -11 26 -249 271 -795 817 l-780 780 -2 1230 -3 1230
-22 41 c-60 113 -167 143 -289 83 -45 -23 -305 -272 -946 -908 l-208 -206
-567 567 c-393 392 -579 572 -605 583 -53 21 -145 20 -183 -4z"/>
<path d="M931 3524 c-34 -17 -62 -41 -79 -67 l-27 -41 -3 -678 c-2 -652 -2
-679 17 -715 24 -48 56 -78 103 -98 31 -13 97 -15 410 -16 l373 0 480 -470
c743 -728 919 -896 966 -920 31 -16 62 -23 106 -23 68 -1 95 13 144 75 51 63
59 122 59 444 l0 290 -1123 1123 -1122 1122 -126 0 c-115 0 -129 -2 -178 -26z"/>
</g>
</svg>
