<?xml version="1.0" standalone="no"?>
<!DOCTYPE svg PUBLIC "-//W3C//DTD SVG 20010904//EN"
 "http://www.w3.org/TR/2001/REC-SVG-20010904/DTD/svg10.dtd">
<svg version="1.0" xmlns="http://www.w3.org/2000/svg"
 width="500.000000pt" height="500.000000pt" viewBox="0 0 500.000000 500.000000"
 preserveAspectRatio="xMidYMid meet">
<metadata>
Created by potrace 1.15, written by Peter Selinger 2001-2017
</metadata>
<g transform="translate(0.000000,500.000000) scale(0.100000,-0.100000)"
fill="#000000" stroke="none">
<path d="M20 2490 l0 -1530 2480 0 2480 0 0 1530 0 1530 -2480 0 -2480 0 0
-1530z m4660 0 l0 -1230 -2180 0 -2180 0 0 1230 0 1230 2180 0 2180 0 0 -1230z"/>
<path d="M1994 2160 c-59 -19 -126 -73 -157 -127 -74 -134 -29 -303 100 -376
134 -74 303 -29 376 100 101 181 -17 399 -221 409 -37 2 -81 -1 -98 -6z"/>
<path d="M2894 2160 c-59 -19 -126 -73 -157 -127 -74 -134 -29 -303 100 -376
134 -74 303 -29 376 100 101 181 -17 399 -221 409 -37 2 -81 -1 -98 -6z"/>
<path d="M3844 2160 c-59 -19 -126 -73 -157 -127 -74 -134 -29 -303 100 -376
134 -74 303 -29 376 100 101 181 -17 399 -221 409 -37 2 -81 -1 -98 -6z"/>
<path d="M1044 2150 c-59 -19 -126 -73 -157 -127 -74 -134 -29 -303 100 -376
134 -74 303 -29 376 100 101 181 -17 399 -221 409 -37 2 -81 -1 -98 -6z"/>
</g>
</svg>
